<?xml version="1.0" encoding="utf-8"?>
<!-- Generator: Adobe Illustrator 19.0.0, SVG Export Plug-In . SVG Version: 6.00 Build 0)  -->
<svg version="1.1" id="Layer_1" xmlns="http://www.w3.org/2000/svg" xmlns:xlink="http://www.w3.org/1999/xlink" x="0px" y="0px"
	 viewBox="0 0 170 37" style="enable-background:new 0 0 170 37;" xml:space="preserve">
<style type="text/css">
	.st0{fill:#4AB8A7;}
	.st1{fill:#FFFFFF;}
</style>
<g id="XMLID_1_">
	<g id="XMLID_23_">
		<path id="XMLID_5_" class="st0" d="M31.1,37H6.3c-3.3,0-6-2.7-6-6V6.2c0-3.3,2.7-6,6-6h24.8c3.3,0,6,2.7,6,6V31
			C37.1,34.3,34.4,37,31.1,37z"/>
	</g>
	<g id="XMLID_6_">
		<path id="XMLID_10_" class="st1" d="M22.3,7.4l-1.6,2c-1.2-1-3.1-1.7-5.1-1.7c-3.2,0-4.5,1.8-4.5,3.6c0,1.1,0.5,2.1,1.4,2.8
			c0.9,0.7,2.3,1.2,3.5,1.5c1.6,0.5,3.3,1,4.9,2.3c1.3,1.1,2.4,2.9,2.4,5c0,3.3-2.5,6.7-7.7,6.7c-2.7,0-5.3-0.9-7.3-2.6l1.7-1.9
			c1.5,1.4,3.6,2,5.7,2c3.6,0,5-2.2,5-4.2c0-1.1-0.6-2.4-1.6-3.2c-1-0.8-2.4-1.3-4.1-1.8c-1.3-0.4-2.7-0.8-4.2-2
			c-1.2-1-2.2-2.7-2.2-4.6c0-3.4,2.7-6.2,7.1-6.2C18.2,5.2,20.6,6,22.3,7.4z"/>
		<path id="XMLID_12_" class="st1" d="M30.3,26.5c0.4,0.4,0.9,0.7,1.7,0.7c0.7,0,1.5-0.3,2.3-0.7l1.1,2.1c-1,0.5-2.1,0.9-3.4,0.9
			c-1.6,0-2.9-0.6-3.7-1.7c-1-1.3-1-2.6-1-4.7V7.9h2.5V12h4.3v2.2h-4.3v8.9C29.8,25.2,29.8,25.9,30.3,26.5z"/>
		<path id="XMLID_14_" class="st0" d="M49.2,12.4l-0.8,2.3c-0.5-0.2-1.1-0.3-1.7-0.3c-1.3,0-2.5,0.5-3.2,1.3c-0.9,1-0.9,2.5-0.9,4.8
			v9h-2.5v-9c0-2.9,0-4.6,1.4-6.3c1.4-1.7,3.5-2.2,5.1-2.2C47.7,12,48.5,12.1,49.2,12.4z"/>
		<path id="XMLID_16_" class="st0" d="M58.3,27.2c1.5,0,3.1-0.4,4.4-1l1,2.2c-1.7,0.9-3.6,1.3-5.4,1.3c-2.5,0-4.5-0.9-5.6-2.4
			c-1.4-1.9-1.4-4-1.4-6.4c0-2.8,0-4.5,1.3-6.3c1.2-1.6,3.3-2.6,5.9-2.6c1.8,0,3.2,0.5,4.3,1.3c1.1,0.9,1.8,2.2,1.8,3.6
			c0,1.6-0.8,2.8-1.8,3.5c-1.5,1.1-3.1,1.1-5.6,1.1h-3.3c0,0.9,0,3.1,0.8,4.2C55.4,26.7,56.5,27.2,58.3,27.2z M61.1,15.1
			c-0.6-0.5-1.5-0.8-2.7-0.8c-1.6,0-2.9,0.5-3.7,1.4c-0.9,1-0.9,2.8-0.9,3.6h3.3c2.3,0,3.3,0,4-0.6c0.5-0.4,0.9-1,0.9-1.8
			C62,16.2,61.7,15.5,61.1,15.1z"/>
		<path id="XMLID_19_" class="st0" d="M78.4,27.7c-1.1,1.3-2.8,1.9-4.9,1.9c-1.7,0-3.2-0.4-4.4-1.2c-1.2-0.8-2.2-2.3-2.2-4.1
			c0-1.9,1-3.3,2.1-4.1c1.7-1.2,3.7-1.2,5.1-1.2h3c0-1.1,0-2.6-0.9-3.5c-0.6-0.7-1.5-1-2.9-1c-1.6,0-3.2,0.4-4.7,0.9l-0.8-2.3
			c1.7-0.6,3.5-1,5.5-1c2.2,0,3.8,0.7,4.9,1.9c1.4,1.6,1.4,3.7,1.4,5.7v2.7C79.6,24.6,79.6,26.3,78.4,27.7z M77.1,21.1h-3
			c-1.2,0-2.5,0-3.5,0.7c-0.6,0.5-1.2,1.3-1.2,2.4c0,1,0.5,1.8,1.2,2.3s1.7,0.7,2.8,0.7c1.3,0,2.4-0.3,3-1c0.7-0.8,0.7-1.9,0.7-4
			V21.1z"/>
		<path id="XMLID_22_" class="st0" d="M94,14.5c1-1.6,2.6-2.5,4.7-2.5c1.7,0,3.2,0.6,4.1,1.5c1.8,1.7,1.8,4,1.8,6.7v9.2h-2.5v-9.2
			c0-2.4,0-4-1.1-5c-0.5-0.5-1.4-0.8-2.3-0.8s-1.8,0.3-2.3,0.8c-1.1,1-1.1,2.6-1.1,5v9.2h-2.5v-9.2c0-2.4,0-4-1.1-5
			c-0.5-0.5-1.4-0.8-2.3-0.8c-1,0-1.8,0.3-2.3,0.8c-1.1,1-1.1,2.6-1.1,5v9.2h-2.5v-9.2c0-2.7,0-4.9,1.8-6.7c1-0.9,2.4-1.5,4.1-1.5
			C91.4,12,93.1,12.9,94,14.5z"/>
		<path id="XMLID_25_" class="st0" d="M119.3,27.7c-1.1,1.3-2.8,1.9-4.9,1.9c-1.7,0-3.2-0.4-4.4-1.2c-1.2-0.8-2.2-2.3-2.2-4.1
			c0-1.9,1-3.3,2.1-4.1c1.7-1.2,3.7-1.2,5.1-1.2h3c0-1.1,0-2.6-0.9-3.5c-0.6-0.7-1.5-1-2.9-1c-1.6,0-3.2,0.4-4.7,0.9l-0.8-2.3
			c1.7-0.6,3.5-1,5.5-1c2.2,0,3.8,0.7,4.9,1.9c1.4,1.6,1.4,3.7,1.4,5.7v2.7C120.6,24.6,120.6,26.3,119.3,27.7z M118.1,21.1h-3
			c-1.2,0-2.5,0-3.5,0.7c-0.6,0.5-1.2,1.3-1.2,2.4c0,1,0.5,1.8,1.2,2.3s1.7,0.7,2.8,0.7c1.3,0,2.4-0.3,3-1c0.7-0.8,0.7-1.9,0.7-4
			V21.1z"/>
		<path id="XMLID_28_" class="st0" d="M136,28.1c-1.5,1-3.3,1.5-5.2,1.5c-2.3,0-4-0.9-5.1-2.1c-1.7-1.9-1.7-4.7-1.7-6.8
			c0-1.9,0-4.6,1.7-6.5c1.1-1.3,2.8-2.2,5.1-2.2c1.7,0,3.5,0.5,4.9,1.4l-1.2,2.1c-1.1-0.7-2.4-1.1-3.7-1.1c-1.1,0-2.3,0.3-3.2,1.3
			c-1.1,1.3-1.1,3.4-1.1,5c0,1.8,0,4,1.2,5.3c0.7,0.8,1.8,1.3,3.2,1.3c1.4,0,2.7-0.4,3.9-1.2L136,28.1z"/>
		<path id="XMLID_30_" class="st0" d="M142.3,5.4V14c0.8-1.2,2.3-2,4-2c2.1,0,3.6,0.9,4.5,1.8c1.7,1.8,1.7,3.9,1.7,6.4v9.2H150v-9.2
			c0-2.2,0-3.7-1-4.8c-0.6-0.6-1.5-1-2.7-1s-2.1,0.4-2.7,1c-1,1-1,2.6-1,4.8v9.2h-2.5v-24H142.3z"/>
		<path id="XMLID_32_" class="st0" d="M168.7,15c1,1.7,1,3.7,1,5.8s0,4-1,5.8c-1.2,1.9-3.2,3.1-5.8,3.1s-4.6-1.2-5.8-3.1
			c-1-1.7-1-3.7-1-5.8s0-4,1-5.8c1.2-1.9,3.2-3.1,5.8-3.1S167.5,13.1,168.7,15z M159.3,16.1c-0.8,1.2-0.8,2.9-0.8,4.7
			c0,1.8,0,3.5,0.8,4.7c0.7,1.1,1.9,1.7,3.5,1.7s2.8-0.6,3.5-1.7c0.8-1.2,0.8-2.9,0.8-4.7c0-1.8,0-3.5-0.8-4.7
			c-0.7-1.1-1.9-1.7-3.5-1.7S160,15,159.3,16.1z"/>
	</g>
	<g id="XMLID_4_">
		<circle id="XMLID_2_" class="st1" cx="8.8" cy="25.5" r="3.9"/>
	</g>
	<g id="XMLID_3_">
		<path id="XMLID_7_" class="st0" d="M8.8,30.1c-2.6,0-4.6-2.1-4.6-4.6c0-2.6,2.1-4.6,4.6-4.6s4.6,2.1,4.6,4.6
			C13.4,28,11.3,30.1,8.8,30.1z M8.8,22.3c-1.7,0-3.1,1.4-3.1,3.1s1.4,3.1,3.1,3.1s3.1-1.4,3.1-3.1C11.9,23.7,10.5,22.3,8.8,22.3z"
			/>
	</g>
</g>
</svg>
