<?xml version="1.0" encoding="UTF-8" standalone="no"?>
<!-- Generator: Adobe Illustrator 19.0.0, SVG Export Plug-In . SVG Version: 6.00 Build 0)  -->

<svg
   xmlns:dc="http://purl.org/dc/elements/1.1/"
   xmlns:cc="http://creativecommons.org/ns#"
   xmlns:rdf="http://www.w3.org/1999/02/22-rdf-syntax-ns#"
   xmlns:svg="http://www.w3.org/2000/svg"
   xmlns="http://www.w3.org/2000/svg"
   xmlns:sodipodi="http://sodipodi.sourceforge.net/DTD/sodipodi-0.dtd"
   xmlns:inkscape="http://www.inkscape.org/namespaces/inkscape"
   version="1.1"
   id="Layer_1"
   x="0px"
   y="0px"
   viewBox="0 0 170 37"
   style="enable-background:new 0 0 170 37;"
   xml:space="preserve"
   sodipodi:docname="logo.svg"
   inkscape:version="0.92.2 2405546, 2018-03-11"><metadata
   id="metadata3822"><rdf:RDF><cc:Work
       rdf:about=""><dc:format>image/svg+xml</dc:format><dc:type
         rdf:resource="http://purl.org/dc/dcmitype/StillImage" /></cc:Work></rdf:RDF></metadata><defs
   id="defs3820">
	
	
	
	

		
		
		
		
		
		
		
		
		
		
	
		
	</defs><sodipodi:namedview
   pagecolor="#ffffff"
   bordercolor="#666666"
   borderopacity="1"
   objecttolerance="10"
   gridtolerance="10"
   guidetolerance="10"
   inkscape:pageopacity="0"
   inkscape:pageshadow="2"
   inkscape:window-width="1920"
   inkscape:window-height="1023"
   id="namedview3818"
   showgrid="false"
   inkscape:zoom="5.5736652"
   inkscape:cx="62.863502"
   inkscape:cy="31.440479"
   inkscape:window-x="0"
   inkscape:window-y="0"
   inkscape:window-maximized="1"
   inkscape:current-layer="Layer_1" />
<style
   type="text/css"
   id="style3797">
	.st0{fill:#4AB8A7;}
	.st1{fill:#FFFFFF;}
</style>
<g
   id="g3867"><g
     style="fill:#ffffff"
     id="XMLID_23_">
		<path
   id="XMLID_5_"
   class="st0"
   d="M 31.1,37 H 6.3 C 3,37 0.3,34.3 0.3,31 V 6.2 c 0,-3.3 2.7,-6 6,-6 h 24.8 c 3.3,0 6,2.7 6,6 V 31 c 0,3.3 -2.7,6 -6,6 z"
   inkscape:connector-curvature="0"
   style="fill:#ffffff" />
	</g><path
     style="fill:#4ab8a7;fill-opacity:1"
     inkscape:connector-curvature="0"
     d="m 22.3,7.4 -1.6,2 c -1.2,-1 -3.1,-1.7 -5.1,-1.7 -3.2,0 -4.5,1.8 -4.5,3.6 0,1.1 0.5,2.1 1.4,2.8 0.9,0.7 2.3,1.2 3.5,1.5 1.6,0.5 3.3,1 4.9,2.3 1.3,1.1 2.4,2.9 2.4,5 0,3.3 -2.5,6.7 -7.7,6.7 -2.7,0 -5.3,-0.9 -7.3,-2.6 L 10,25.1 c 1.5,1.4 3.6,2 5.7,2 3.6,0 5,-2.2 5,-4.2 0,-1.1 -0.6,-2.4 -1.6,-3.2 -1,-0.8 -2.4,-1.3 -4.1,-1.8 -1.3,-0.4 -2.7,-0.8 -4.2,-2 -1.2,-1 -2.2,-2.7 -2.2,-4.6 0,-3.4 2.7,-6.2 7.1,-6.2 2.5,0.1 4.9,0.9 6.6,2.3 z"
     class="st1"
     id="XMLID_10_" /><path
     style="fill:#4ab8a7;fill-opacity:1"
     inkscape:connector-curvature="0"
     d="m 30.3,26.5 c 0.4,0.4 0.9,0.7 1.7,0.7 0.7,0 1.5,-0.3 2.3,-0.7 l 1.1,2.1 c -1,0.5 -2.1,0.9 -3.4,0.9 -1.6,0 -2.9,-0.6 -3.7,-1.7 -1,-1.3 -1,-2.6 -1,-4.7 V 7.9 h 2.5 V 12 h 4.3 v 2.2 h -4.3 v 8.9 c 0,2.1 0,2.8 0.5,3.4 z"
     class="st1"
     id="XMLID_12_" /><path
     style="fill:#ffffff"
     inkscape:connector-curvature="0"
     d="m 49.2,12.4 -0.8,2.3 c -0.5,-0.2 -1.1,-0.3 -1.7,-0.3 -1.3,0 -2.5,0.5 -3.2,1.3 -0.9,1 -0.9,2.5 -0.9,4.8 v 9 h -2.5 v -9 c 0,-2.9 0,-4.6 1.4,-6.3 1.4,-1.7 3.5,-2.2 5.1,-2.2 1.1,0 1.9,0.1 2.6,0.4 z"
     class="st0"
     id="XMLID_14_" /><path
     style="fill:#ffffff"
     inkscape:connector-curvature="0"
     d="m 58.3,27.2 c 1.5,0 3.1,-0.4 4.4,-1 l 1,2.2 c -1.7,0.9 -3.6,1.3 -5.4,1.3 -2.5,0 -4.5,-0.9 -5.6,-2.4 -1.4,-1.9 -1.4,-4 -1.4,-6.4 0,-2.8 0,-4.5 1.3,-6.3 1.2,-1.6 3.3,-2.6 5.9,-2.6 1.8,0 3.2,0.5 4.3,1.3 1.1,0.9 1.8,2.2 1.8,3.6 0,1.6 -0.8,2.8 -1.8,3.5 -1.5,1.1 -3.1,1.1 -5.6,1.1 h -3.3 c 0,0.9 0,3.1 0.8,4.2 0.7,1 1.8,1.5 3.6,1.5 z m 2.8,-12.1 c -0.6,-0.5 -1.5,-0.8 -2.7,-0.8 -1.6,0 -2.9,0.5 -3.7,1.4 -0.9,1 -0.9,2.8 -0.9,3.6 h 3.3 c 2.3,0 3.3,0 4,-0.6 0.5,-0.4 0.9,-1 0.9,-1.8 0,-0.7 -0.3,-1.4 -0.9,-1.8 z"
     class="st0"
     id="XMLID_16_" /><path
     style="fill:#ffffff"
     inkscape:connector-curvature="0"
     d="m 78.4,27.7 c -1.1,1.3 -2.8,1.9 -4.9,1.9 -1.7,0 -3.2,-0.4 -4.4,-1.2 -1.2,-0.8 -2.2,-2.3 -2.2,-4.1 0,-1.9 1,-3.3 2.1,-4.1 C 70.7,19 72.7,19 74.1,19 h 3 c 0,-1.1 0,-2.6 -0.9,-3.5 -0.6,-0.7 -1.5,-1 -2.9,-1 -1.6,0 -3.2,0.4 -4.7,0.9 l -0.8,-2.3 c 1.7,-0.6 3.5,-1 5.5,-1 2.2,0 3.8,0.7 4.9,1.9 1.4,1.6 1.4,3.7 1.4,5.7 v 2.7 c 0,2.2 0,3.9 -1.2,5.3 z m -1.3,-6.6 h -3 c -1.2,0 -2.5,0 -3.5,0.7 -0.6,0.5 -1.2,1.3 -1.2,2.4 0,1 0.5,1.8 1.2,2.3 0.7,0.5 1.7,0.7 2.8,0.7 1.3,0 2.4,-0.3 3,-1 0.7,-0.8 0.7,-1.9 0.7,-4 z"
     class="st0"
     id="XMLID_19_" /><path
     style="fill:#ffffff"
     inkscape:connector-curvature="0"
     d="m 94,14.5 c 1,-1.6 2.6,-2.5 4.7,-2.5 1.7,0 3.2,0.6 4.1,1.5 1.8,1.7 1.8,4 1.8,6.7 v 9.2 h -2.5 v -9.2 c 0,-2.4 0,-4 -1.1,-5 -0.5,-0.5 -1.4,-0.8 -2.3,-0.8 -0.9,0 -1.8,0.3 -2.3,0.8 -1.1,1 -1.1,2.6 -1.1,5 v 9.2 h -2.5 v -9.2 c 0,-2.4 0,-4 -1.1,-5 -0.5,-0.5 -1.4,-0.8 -2.3,-0.8 -1,0 -1.8,0.3 -2.3,0.8 -1.1,1 -1.1,2.6 -1.1,5 v 9.2 h -2.5 v -9.2 c 0,-2.7 0,-4.9 1.8,-6.7 1,-0.9 2.4,-1.5 4.1,-1.5 2,0 3.7,0.9 4.6,2.5 z"
     class="st0"
     id="XMLID_22_" /><path
     style="fill:#ffffff"
     inkscape:connector-curvature="0"
     d="m 119.3,27.7 c -1.1,1.3 -2.8,1.9 -4.9,1.9 -1.7,0 -3.2,-0.4 -4.4,-1.2 -1.2,-0.8 -2.2,-2.3 -2.2,-4.1 0,-1.9 1,-3.3 2.1,-4.1 1.7,-1.2 3.7,-1.2 5.1,-1.2 h 3 c 0,-1.1 0,-2.6 -0.9,-3.5 -0.6,-0.7 -1.5,-1 -2.9,-1 -1.6,0 -3.2,0.4 -4.7,0.9 l -0.8,-2.3 c 1.7,-0.6 3.5,-1 5.5,-1 2.2,0 3.8,0.7 4.9,1.9 1.4,1.6 1.4,3.7 1.4,5.7 v 2.7 c 0.1,2.2 0.1,3.9 -1.2,5.3 z m -1.2,-6.6 h -3 c -1.2,0 -2.5,0 -3.5,0.7 -0.6,0.5 -1.2,1.3 -1.2,2.4 0,1 0.5,1.8 1.2,2.3 0.7,0.5 1.7,0.7 2.8,0.7 1.3,0 2.4,-0.3 3,-1 0.7,-0.8 0.7,-1.9 0.7,-4 z"
     class="st0"
     id="XMLID_25_" /><path
     style="fill:#ffffff"
     inkscape:connector-curvature="0"
     d="m 136,28.1 c -1.5,1 -3.3,1.5 -5.2,1.5 -2.3,0 -4,-0.9 -5.1,-2.1 -1.7,-1.9 -1.7,-4.7 -1.7,-6.8 0,-1.9 0,-4.6 1.7,-6.5 1.1,-1.3 2.8,-2.2 5.1,-2.2 1.7,0 3.5,0.5 4.9,1.4 l -1.2,2.1 c -1.1,-0.7 -2.4,-1.1 -3.7,-1.1 -1.1,0 -2.3,0.3 -3.2,1.3 -1.1,1.3 -1.1,3.4 -1.1,5 0,1.8 0,4 1.2,5.3 0.7,0.8 1.8,1.3 3.2,1.3 1.4,0 2.7,-0.4 3.9,-1.2 z"
     class="st0"
     id="XMLID_28_" /><path
     style="fill:#ffffff"
     inkscape:connector-curvature="0"
     d="M 142.3,5.4 V 14 c 0.8,-1.2 2.3,-2 4,-2 2.1,0 3.6,0.9 4.5,1.8 1.7,1.8 1.7,3.9 1.7,6.4 v 9.2 H 150 v -9.2 c 0,-2.2 0,-3.7 -1,-4.8 -0.6,-0.6 -1.5,-1 -2.7,-1 -1.2,0 -2.1,0.4 -2.7,1 -1,1 -1,2.6 -1,4.8 v 9.2 h -2.5 v -24 z"
     class="st0"
     id="XMLID_30_" /><path
     style="fill:#ffffff"
     inkscape:connector-curvature="0"
     d="m 168.7,15 c 1,1.7 1,3.7 1,5.8 0,2.1 0,4 -1,5.8 -1.2,1.9 -3.2,3.1 -5.8,3.1 -2.6,0 -4.6,-1.2 -5.8,-3.1 -1,-1.7 -1,-3.7 -1,-5.8 0,-2.1 0,-4 1,-5.8 1.2,-1.9 3.2,-3.1 5.8,-3.1 2.6,0 4.6,1.2 5.8,3.1 z m -9.4,1.1 c -0.8,1.2 -0.8,2.9 -0.8,4.7 0,1.8 0,3.5 0.8,4.7 0.7,1.1 1.9,1.7 3.5,1.7 1.6,0 2.8,-0.6 3.5,-1.7 0.8,-1.2 0.8,-2.9 0.8,-4.7 0,-1.8 0,-3.5 -0.8,-4.7 -0.7,-1.1 -1.9,-1.7 -3.5,-1.7 -1.6,0 -2.8,0.6 -3.5,1.7 z"
     class="st0"
     id="XMLID_32_" /><g
     style="fill:#4ab8a7;fill-opacity:1"
     id="XMLID_4_">
		<circle
   id="XMLID_2_"
   class="st1"
   cx="8.8000002"
   cy="25.5"
   r="3.9000001"
   style="fill:#4ab8a7;fill-opacity:1" />
	</g><path
     style="fill:#ffffff"
     inkscape:connector-curvature="0"
     d="m 8.8,30.1 c -2.6,0 -4.6,-2.1 -4.6,-4.6 0,-2.6 2.1,-4.6 4.6,-4.6 2.5,0 4.6,2.1 4.6,4.6 0,2.5 -2.1,4.6 -4.6,4.6 z m 0,-7.8 c -1.7,0 -3.1,1.4 -3.1,3.1 0,1.7 1.4,3.1 3.1,3.1 1.7,0 3.1,-1.4 3.1,-3.1 0,-1.7 -1.4,-3.1 -3.1,-3.1 z"
     class="st0"
     id="XMLID_7_" /></g>
</svg>